<?xml version="1.0" encoding="UTF-8" standalone="no"?>
<!-- Created with Inkscape (http://www.inkscape.org/) -->

<svg
   xmlns:dc="http://purl.org/dc/elements/1.1/"
   xmlns:cc="http://creativecommons.org/ns#"
   xmlns:rdf="http://www.w3.org/1999/02/22-rdf-syntax-ns#"
   xmlns:svg="http://www.w3.org/2000/svg"
   xmlns="http://www.w3.org/2000/svg"
   xmlns:sodipodi="http://sodipodi.sourceforge.net/DTD/sodipodi-0.dtd"
   xmlns:inkscape="http://www.inkscape.org/namespaces/inkscape"
   width="204.8123mm"
   height="204.81229mm"
   viewBox="0 0 725.71288 725.71283"
   id="svg2"
   version="1.1"
   inkscape:version="0.91 r"
   sodipodi:docname="circle.svg">
  <defs
     id="defs4" />
  <g
     inkscape:label="レイヤー 1"
     inkscape:groupmode="layer"
     id="layer1"
     transform="translate(0,-326.64939)">
    <path
       style="color:#000000;clip-rule:nonzero;display:inline;overflow:visible;visibility:visible;opacity:1;isolation:auto;mix-blend-mode:normal;color-interpolation:sRGB;color-interpolation-filters:linearRGB;solid-color:#000000;solid-opacity:1;fill:#ffffff;fill-opacity:1;fill-rule:nonzero;stroke:none;stroke-width:1;stroke-linecap:butt;stroke-linejoin:miter;stroke-miterlimit:4;stroke-dasharray:none;stroke-dashoffset:0;stroke-opacity:1;color-rendering:auto;image-rendering:optimizeSpeed;shape-rendering:auto;text-rendering:auto;enable-background:accumulate"
       d="M 362.85546,326.64939 A 362.85715,362.85715 0 0 0 0,689.50485 362.85715,362.85715 0 0 0 362.85546,1052.3622 362.85715,362.85715 0 0 0 725.71289,689.50485 362.85715,362.85715 0 0 0 362.85546,326.64939 Z m 0,111.42773 A 251.42857,251.42857 0 0 1 614.28515,689.50485 251.42857,251.42857 0 0 1 362.85546,940.93454 251.42857,251.42857 0 0 1 111.42773,689.50485 251.42857,251.42857 0 0 1 362.85546,438.07712 Z"
       id="path3336-5"
       inkscape:connector-curvature="0" />
  </g>
</svg>
