<?xml version="1.0" encoding="UTF-8" standalone="no"?>
<!-- Created with Inkscape (http://www.inkscape.org/) -->

<svg
   xmlns:dc="http://purl.org/dc/elements/1.1/"
   xmlns:cc="http://creativecommons.org/ns#"
   xmlns:rdf="http://www.w3.org/1999/02/22-rdf-syntax-ns#"
   xmlns:svg="http://www.w3.org/2000/svg"
   xmlns="http://www.w3.org/2000/svg"
   xmlns:sodipodi="http://sodipodi.sourceforge.net/DTD/sodipodi-0.dtd"
   xmlns:inkscape="http://www.inkscape.org/namespaces/inkscape"
   width="80mm"
   height="80mm"
   viewBox="0 0 283.46457 283.46457"
   id="svg2"
   version="1.1"
   inkscape:version="0.91 r13725"
   sodipodi:docname="saw.svg">
  <defs
     id="defs4">
    <pattern
       y="0"
       x="0"
       height="6"
       width="6"
       patternUnits="userSpaceOnUse"
       id="EMFhbasepattern" />
  </defs>
  <sodipodi:namedview
     id="base"
     pagecolor="#ffffff"
     bordercolor="#666666"
     borderopacity="1.0"
     inkscape:pageopacity="0.0"
     inkscape:pageshadow="2"
     inkscape:zoom="0.49497476"
     inkscape:cx="-180.81405"
     inkscape:cy="333.05482"
     inkscape:document-units="px"
     inkscape:current-layer="layer1"
     showgrid="false"
     showguides="true"
     inkscape:guide-bbox="true"
     inkscape:object-nodes="true">
    <inkscape:grid
       type="xygrid"
       id="grid4149" />
  </sodipodi:namedview>
  <metadata
     id="metadata7">
    <rdf:RDF>
      <cc:Work
         rdf:about="">
        <dc:format>image/svg+xml</dc:format>
        <dc:type
           rdf:resource="http://purl.org/dc/dcmitype/StillImage" />
        <dc:title />
      </cc:Work>
    </rdf:RDF>
  </metadata>
  <g
     inkscape:label="Layer 1"
     inkscape:groupmode="layer"
     id="layer1"
     transform="translate(0,-768.89764)">
    <g
       id="g4160-6-6"
       transform="matrix(-1.2474257,0,0,1.2474257,411.86493,152.08581)"
       style="fill:#00aad4">
      <path
         style="color:#000000;clip-rule:nonzero;display:inline;overflow:visible;visibility:visible;opacity:1;isolation:auto;mix-blend-mode:normal;color-interpolation:sRGB;color-interpolation-filters:linearRGB;solid-color:#000000;solid-opacity:1;fill:#00aad4;fill-opacity:1;fill-rule:nonzero;stroke:none;stroke-width:3;stroke-linecap:butt;stroke-linejoin:miter;stroke-miterlimit:100;stroke-dasharray:none;stroke-dashoffset:0;stroke-opacity:1;marker:none;color-rendering:auto;image-rendering:auto;shape-rendering:auto;text-rendering:auto;enable-background:accumulate"
         d="m 216.55287,499.42712 36.84619,41.79232 17.48445,-27.23421 11.01331,54.6156 28.75922,-14.84307 -17.77097,52.80563 32.32752,1.52501 -41.79075,36.8462 27.2342,17.48444 -54.61559,11.01331 14.84306,28.75923 -52.80562,-17.77098 -1.52502,32.32752 -36.8462,-41.79075 -17.48444,27.23421 -11.01331,-54.6156 -28.75923,14.84306 17.76941,-52.80562 -32.32751,-1.52502 41.79232,-36.84619 -27.23422,-17.48445 54.61561,-11.0133 -14.84307,-28.75923 52.80563,17.76941 1.52501,-32.32752 z m 0,82.39782 a 26.263966,26.263966 0 0 0 -26.26503,26.26346 26.263966,26.263966 0 0 0 26.26503,26.26347 26.263966,26.263966 0 0 0 26.26346,-26.26347 26.263966,26.263966 0 0 0 -26.26346,-26.26346 z"
         id="path4136-7-0"
         inkscape:connector-curvature="0" />
    </g>
  </g>
</svg>
